// notes in the melody:
int melody[] = {
    //jingle bells
  NOTE_E5, NOTE_E5, NOTE_E5,NOTE_E5, NOTE_E5, NOTE_E5, NOTE_E5, NOTE_G5, NOTE_C5,NOTE_D5, NOTE_E5,
  NOTE_F5, NOTE_F5, NOTE_F5,NOTE_F5, NOTE_F5, NOTE_E5,NOTE_E5, NOTE_E5,NOTE_E5, NOTE_D5, NOTE_D5,NOTE_E5, NOTE_D5, NOTE_G5,
  NOTE_E5, NOTE_E5, NOTE_E5,NOTE_E5, NOTE_E5, NOTE_E5, NOTE_E5, NOTE_G5, NOTE_C5,NOTE_D5, NOTE_E5,
  NOTE_F5, NOTE_F5, NOTE_F5,NOTE_F5, NOTE_F5, NOTE_E5,NOTE_E5, NOTE_E5,NOTE_G5, NOTE_G5, NOTE_F5,NOTE_D5, NOTE_C5
  };


// note durations: 4 = quarter note, 8 = eighth note, etc.:
float noteDurations[] = {
  4,4,2,4,4,2,4,4,4,4,1,
  4,4,4,4,4,4,4,2,4,4,4,4,2,2,
  4,4,2,4,4,2,4,4,4,4,1,
  4,4,4,4,4,4,4,2,4,4,4,4,1
};
